<svg width="136" height="50" viewBox="0 0 136 50" fill="none" xmlns="http://www.w3.org/2000/svg">
<g clip-path="url(#clip0)">
<path fill-rule="evenodd" clip-rule="evenodd" d="M39.6102 41.2179C39.8914 41.1044 40.187 41.0478 40.4973 41.0478C41.0402 41.0478 41.4424 41.2232 41.7042 41.5739C41.9755 41.9144 42.1115 42.3481 42.1115 42.8742C42.1115 43.1839 42.0531 43.4937 41.9369 43.8031C41.8303 44.1129 41.6557 44.4534 41.4134 44.8248C41.1711 45.1965 40.8561 45.604 40.4682 46.0478C40.0903 46.4915 39.6345 46.9974 39.1014 47.565L37.8945 48.8496L38.1272 49.8251H43.6382V48.6949H39.4797L40.3374 47.8125C40.8123 47.3276 41.2388 46.8682 41.617 46.4349C41.995 45.9911 42.3148 45.5679 42.5765 45.1654C42.8482 44.7525 43.0566 44.3553 43.2019 43.9735C43.3474 43.5814 43.4199 43.1993 43.4199 42.8279C43.4199 42.4151 43.3618 42.0333 43.2456 41.6824C43.1291 41.3314 42.9497 41.027 42.7074 40.7688C42.4651 40.511 42.1597 40.3097 41.7913 40.1654C41.4329 40.0103 41.0013 39.933 40.4973 39.933C40.1289 39.933 39.7462 39.9949 39.3488 40.1188C38.961 40.2427 38.5489 40.5006 38.1129 40.8927L38.6798 41.8063C39.0191 41.5276 39.3293 41.3314 39.6102 41.2179ZM67.8246 40.2273C67.3885 40.0311 66.9184 39.933 66.4143 39.933C65.9394 39.933 65.4835 40.0361 65.0475 40.2427C64.6208 40.4386 64.2428 40.7484 63.9134 41.1713C63.5933 41.5842 63.3366 42.1053 63.1426 42.7349C62.9488 43.3644 62.8518 44.1025 62.8518 44.9487C62.8518 45.8361 62.9389 46.6 63.1135 47.2399C63.2977 47.8694 63.5498 48.3855 63.8697 48.788C64.1895 49.1902 64.5627 49.4896 64.9891 49.6858C65.4255 49.8713 65.9004 49.9644 66.4143 49.9644C66.8893 49.9644 67.34 49.8713 67.7665 49.6858C68.1929 49.4896 68.5712 49.1902 68.9006 48.788C69.2303 48.3855 69.4921 47.8694 69.6858 47.2399C69.8796 46.6 69.9766 45.8361 69.9766 44.9487C69.9766 44.0613 69.8847 43.3025 69.7005 42.6732C69.5259 42.0333 69.2788 41.5119 68.9587 41.1097C68.6388 40.7072 68.2609 40.4129 67.8246 40.2273ZM64.3785 46.9455C64.2524 46.4295 64.1895 45.7641 64.1895 44.9487C64.1895 44.1748 64.2476 43.5349 64.3641 43.0292C64.4899 42.5235 64.6549 42.121 64.8582 41.8217C65.0619 41.5119 65.2946 41.3006 65.5563 41.1871C65.8276 41.0632 66.1089 41.0012 66.3997 41.0012C66.6904 41.0012 66.9717 41.0578 67.243 41.1713C67.5143 41.2748 67.7521 41.4707 67.9554 41.7597C68.1591 42.0487 68.3238 42.4512 68.4499 42.9673C68.5759 43.4833 68.6388 44.1437 68.6388 44.9487C68.6388 45.7226 68.5759 46.3625 68.4499 46.8682C68.3337 47.3738 68.1738 47.7817 67.9701 48.0911C67.7665 48.3905 67.529 48.6022 67.2577 48.7261C66.9959 48.8396 66.7195 48.8962 66.4287 48.8962C66.1379 48.8962 65.8567 48.8446 65.5854 48.7415C65.3141 48.6279 65.0766 48.4267 64.8729 48.1377C64.6693 47.8487 64.5046 47.4515 64.3785 46.9455ZM95.0762 41.032V40.0723H89.3763V41.2025H93.7965L90.0306 49.5927L90.323 49.7298H91.2841L95.0762 41.032ZM91.135 50.0723V50.0443H90.9943L91.1213 50.1037L91.135 50.0723ZM120.233 41.032V40.0723H114.533V41.2025H118.954L115.188 49.5927L115.48 49.7298H116.441L120.233 41.032ZM116.304 50.0443H116.151L116.278 50.1037L116.304 50.0443Z" fill="#58BBD6"/>
<path d="M115.497 42.72V41.1275V40.1021H114.297V42.72H115.497Z" fill="#58BBD6"/>
<path d="M90.4328 42.72V41.1275V40.1021H89.2266V41.3266V42.72H90.4328Z" fill="#58BBD6"/>
<path d="M37.8945 42.72V41.3266C37.8945 40.9285 38.2945 40.7294 38.4946 40.7294L39.0947 40.53V42.72H37.8945Z" fill="#58BBD6"/>
<path d="M56.0938 49.0908H43.0938V48.8917L56.0938 48.6923L59.8938 45.109H63.0938V45.5071H59.8938L56.0938 49.0908Z" fill="#58BBD6"/>
<path d="M61.897 47.8961V47.498H60.2969V47.8961H61.897Z" fill="#58BBD6"/>
<path d="M79.6967 45.109H69.2969V44.7109H79.6967V45.109Z" fill="#58BBD6"/>
<path d="M80.6939 47.8962H80.2939V47.498H79.0938V48.2943H80.6939V47.8962Z" fill="#58BBD6"/>
<path d="M87.0962 45.9053V46.3037V46.5028H86.4961V46.7018H88.2961V46.5028H87.4962V45.9053H87.0962Z" fill="#58BBD6"/>
<path d="M88.2935 44.7109V45.109H82.0938V44.7109H88.2935Z" fill="#58BBD6"/>
<path d="M106.895 45.109H92.6953V44.7109H106.895V45.109Z" fill="#58BBD6"/>
<path d="M96.6953 46.7018V46.3037H97.4952V46.7018H96.6953Z" fill="#58BBD6"/>
<path d="M99.4961 46.7018V46.3037H103.896V46.7018H99.4961Z" fill="#58BBD6"/>
<path d="M104.695 46.7018V46.3037H111.495V47.0999H108.695V46.7018H104.695Z" fill="#58BBD6"/>
<path d="M109.094 44.3129V44.711H117.494V44.3129H109.094Z" fill="#58BBD6"/>
<path d="M129.828 44.711H117.895V44.3129H129.828V44.711Z" fill="#58BBD6"/>
<path d="M130.895 44.3128V43.9147H134.895V44.3128H130.895Z" fill="#58BBD6"/>
<path d="M119.895 46.3037V46.7018H118.695V47.0999H124.295V46.7018H120.295V46.3037H119.895Z" fill="#58BBD6"/>
<path d="M76.2942 47.498V47.8962V48.2943H73.8945V47.8962H74.2945V47.498H76.2942Z" fill="#58BBD6"/>
<path d="M81.0962 46.3037V47.0999H79.4961V46.7018H80.6963V46.3037H81.0962Z" fill="#58BBD6"/>
<path d="M79.0953 47.0999V46.7018H78.6953V47.0999H78.8954H79.0953Z" fill="#58BBD6"/>
<path d="M77.8937 47.0999V46.7018H77.0938V47.0999H77.8937Z" fill="#58BBD6"/>
<path d="M71.8945 46.3036V45.5071H72.6945V46.3036H71.8945Z" fill="#58BBD6"/>
<path d="M71.0938 47.498V46.7018H72.6936V47.498H72.2936V47.0999H71.4937V47.498H71.0938Z" fill="#58BBD6"/>
<path d="M46.2951 47.498V46.7018V46.5028H45.4952V46.3037H44.6953V46.7018H45.4952V47.498H46.2951Z" fill="#58BBD6"/>
</g>
<path d="M75.9694 6.44653L74.533 5.3459H74.3734L75.9694 4.40251L69.9046 0L67.5106 1.57232L66.0742 1.41509L5.42639 30.1886L0 30.9748L1.596 32.7043L10.2144 36.3207L11.4912 37.2641L68.6278 34.1194L69.4258 34.5911L72.4582 31.132L71.341 28.9308V27.6729H69.4258L65.4359 24.5283L62.2439 25.7861L32.5583 26.5723L64.159 8.49055L69.745 9.59118L75.9694 6.44653Z" fill="#FEEF00"/>
<path d="M72.4108 31.1257V28.9358H71.2109V30.1304L68.2107 33.5147L10.2109 36.3018L11.4109 37.2971L68.6107 34.1119L69.4109 34.51L72.4108 31.1257Z" fill="#58BBD6"/>
<path d="M14.375 26.5473L21.575 23.1631V23.3621L17.575 25.9502L21.375 26.1492L27.975 26.5473H29.775L64.1749 7.63481L68.1748 8.63019L74.3749 5.24585L75.9747 6.44031L69.7749 9.62559L64.1749 8.63019L32.4647 26.5822L60.575 26.9455L61.575 27.742H22.975L22.375 26.9455H14.375V26.5473Z" fill="#58BBD6"/>
<path d="M9.61953 31.3256H9.21951H9.01953L9.21951 31.7237H9.61953V31.3256Z" fill="#5EB9D4"/>
<path d="M11.8039 31.3256H11.2039L11.0039 31.7237H11.6039L11.8039 31.3256Z" fill="#5EB9D4"/>
<path d="M13.5836 31.7237V31.3256H13.1836V31.7237H13.5836Z" fill="#5EB9D4"/>
<path d="M29.8617 31.5246H19.2617L36.6615 31.7237V31.3256H31.0617L29.8617 31.5246Z" fill="#5EB9D4"/>
<path d="M40.8398 34.5109V35.5065H43.0401V34.7099H42.2399V34.3118H43.84V33.9137H41.4399V34.3118H41.04V34.5109H40.8398Z" fill="#5EB9D4"/>
<defs>
<clipPath id="clip0">
<rect width="97.0365" height="10.0629" fill="white" transform="translate(37.9648 39.937)"/>
</clipPath>
</defs>
</svg>
