<svg width="122" height="64" viewBox="0 0 122 64" fill="none" xmlns="http://www.w3.org/2000/svg">
<path d="M6.96434 28.7458V29.0883H6.10842L5.76605 28.7458L2 28.9171C2.10998 28.6641 2.12352 28.5104 2 28.232C3.72132 28.0524 4.57648 28.0703 6.2796 28.232L6.96434 28.7458Z" fill="black"/>
<path d="M5.76605 24.6353L2.85592 27.3757L5.93723 25.663L7.64907 29.2596V29.7735H6.79315C6.43077 30.2702 6.44157 30.5322 6.79315 30.9723L5.08131 30.3729L5.59486 31.6574V33.7127L4.39658 35.9392H5.08131L7.99144 31.8287L7.47789 34.569L14.3253 27.2044L13.127 25.8342L9.87447 28.4033H8.50499V28.0607C9.087 28.1303 9.38661 28.1299 9.87447 28.0607C10.2729 28.0488 10.3699 27.9232 10.388 27.5469C10.682 27.0563 10.7036 26.7538 10.388 26.1768L9.70328 25.663H9.36091V24.9779L13.8117 20.6961L12.0999 21.3812L12.7846 20.1823L9.36091 22.4088L11.7575 18.6409L9.36091 20.6961L10.5592 17.2707L9.18973 18.6409L9.70328 17.2707L5.76605 24.6353Z" fill="black"/>
<path d="M14.8388 53.4088V53.0663H15.8659V53.4088H14.8388Z" fill="black"/>
<path d="M22.7133 51.6961H22.0285L21.6862 54.9503C22.2206 54.7444 22.484 54.5591 22.8845 54.0939C23.0666 53.3825 23.0683 52.9722 22.8845 52.2099L22.7133 51.6961Z" fill="black"/>
<path d="M25.7946 51.1823L13.2981 40.0497L41.5435 52.7237L41.03 53.0663L28.5335 50.4972L29.3894 51.1823C28.0531 51.3846 27.264 51.3937 25.7946 51.1823Z" fill="black"/>
<path d="M11.5863 17.7845V7.33702L5.42368 21.3812L4.91013 17.7845L2 28.232C3.88284 28.0474 4.81765 28.0519 6.2796 28.232L6.96434 28.7459C6.88055 28.8468 6.87606 28.9181 6.96434 29.0884C6.63699 28.9497 6.45346 28.9222 6.10842 29.0884C6.03584 28.8769 5.97084 28.7903 5.76605 28.7459C4.5119 28.5546 3.8017 28.5693 2.51355 28.7459L2 28.9171C3.7875 29.8933 4.84384 30.334 6.79315 30.9724C6.63009 30.5157 6.62744 30.2523 6.79315 29.7735C7.12999 29.9144 7.3174 29.9155 7.64907 29.7735V29.2597C7.19165 27.6462 6.80554 26.8597 5.93723 25.663C4.82221 26.1323 4.17353 26.4998 2.85592 27.3757C4.07993 26.3638 4.6735 25.7742 5.76605 24.6354C7.39665 21.8176 8.24683 20.207 9.70328 17.2707L9.18973 18.6409C9.79767 18.2165 10.1045 17.9179 10.5592 17.2707C9.8301 18.5693 9.63648 19.304 9.36091 20.6961C10.3688 19.996 10.9128 19.5432 11.7575 18.6409C10.6925 20.0369 10.1385 20.869 9.36091 22.4088C10.8162 21.7025 11.4687 21.2368 12.7846 20.1823C12.3195 20.6896 12.1866 20.9483 12.0999 21.3812C12.8951 21.1495 13.0059 21.0601 13.8117 20.6961C11.9727 22.3084 10.8436 23.2815 9.36091 24.9779C9.26609 25.2451 9.27118 25.3955 9.36091 25.663H9.70328C9.79371 25.991 9.94942 26.0965 10.388 26.1768C10.473 26.7206 10.4687 27.0202 10.388 27.547C10.2647 27.8234 10.1461 27.9327 9.87446 28.0608C9.34149 28.0933 9.03675 28.0966 8.50499 28.0608C8.40549 28.1951 8.40793 28.2701 8.50499 28.4033C9.04007 28.509 9.33965 28.5012 9.87446 28.4033C11.2924 27.5709 12.0012 27.0067 13.127 25.8343C13.4929 26.4431 13.8175 26.7293 14.3252 27.2044C11.3961 29.7862 9.90141 31.3894 7.47789 34.5691C7.89345 33.5097 8.04303 32.9018 7.99144 31.8287C6.42699 33.0721 5.8056 33.9632 5.08131 35.9392C4.76454 35.662 4.61456 35.6338 4.39658 35.9392C4.13755 36.0528 4.01375 36.1613 3.88302 36.453H4.73894C4.06022 38.0607 3.81047 39.002 3.54066 40.7348C3.32817 42.2636 3.32924 43.088 3.54066 44.5028H4.05421C4.8778 47.3211 5.59368 48.6034 7.64907 49.9834C10.1524 51.7116 11.7301 52.396 14.8388 53.0663H20.1455C20.0996 53.2423 20.1143 53.3508 20.1455 53.5801C20.3538 54.0668 20.4605 54.3096 21.0014 54.6077L18.776 59.9171C17.7574 59.9472 17.2038 59.9996 16.2083 60.174C15.682 60.5352 15.4635 60.7551 15.0956 61.2017L16.1227 60.9447C15.268 61.7041 14.8846 62.1531 14.3252 63C15.8854 62.0415 16.8176 61.5446 18.6048 60.7735H20.6591C20.7155 61.1523 20.7292 61.3384 20.6591 61.6298C20.832 61.7536 20.9069 61.8287 21.0014 61.9724L21.3438 61.2873C21.4065 61.0196 21.3941 60.8699 21.3438 60.6022C20.8681 60.0709 20.4573 59.926 19.632 59.9171L22.3709 53.3232C22.3317 52.678 22.2683 52.32 22.0285 51.6961C22.3125 51.7868 22.4553 51.7936 22.7133 51.6961C22.6509 51.9109 22.6579 52.0218 22.7133 52.2099C24.2005 52.025 24.8639 51.8053 25.7946 51.1823L25.4809 50.877C20.9325 46.4495 18.4034 43.9877 13.2981 40.0497C24.1225 45.3637 31.0157 49.0414 41.5435 52.7238L17.5777 36.2818L31.786 26.0055L21.6862 28.4033L42.3994 19.1547L25.1098 21.2099L34.1826 14.3591L24.4251 18.1271L25.6234 15.3867L18.4337 20.3536L27.1641 1H26.1369L11.5863 17.7845Z" fill="#DA0C14"/>
<path d="M15.5235 53.4088H14.8388L10.5592 57.6906C9.08651 57.9814 8.24121 58.209 6.79315 58.7182C5.99284 59.3524 5.60664 59.7686 5.08131 60.6022L9.01854 58.8895C8.68371 59.2834 8.53582 59.5481 8.33381 60.0884C8.79782 59.6768 9.06029 59.4892 9.5321 59.232C10.2628 59.1084 10.6798 59.1106 11.4151 59.232C11.1134 59.0331 11.0413 58.9205 11.0728 58.7182C11.1105 58.474 11.1041 58.3223 11.0728 58.0331L15.5235 53.4088Z" fill="#DA0C14"/>
<path d="M33.4979 53.5801C31.4123 52.7145 30.3299 52.0307 28.5335 50.4972L41.03 53.0663C38.0137 53.3658 36.3418 53.2453 33.3267 52.5525L33.4979 53.5801Z" fill="#DA0C14"/>
<path d="M11.5863 17.7845V7.33702L5.42368 21.3812L4.91013 17.7845L2 28.232C3.88284 28.0474 4.81765 28.0519 6.2796 28.232L6.96434 28.7459C6.88055 28.8468 6.87606 28.9181 6.96434 29.0884C6.63699 28.9497 6.45346 28.9222 6.10842 29.0884C6.03584 28.8769 5.97084 28.7903 5.76605 28.7459C4.5119 28.5546 3.8017 28.5693 2.51355 28.7459L2 28.9171C3.7875 29.8933 4.84384 30.334 6.79315 30.9724C6.63009 30.5157 6.62744 30.2523 6.79315 29.7735C7.12999 29.9144 7.3174 29.9155 7.64907 29.7735V29.2597C7.19165 27.6462 6.80554 26.8597 5.93723 25.663C4.82221 26.1323 4.17353 26.4998 2.85592 27.3757C4.07993 26.3638 4.6735 25.7742 5.76605 24.6354C7.39665 21.8176 8.24683 20.207 9.70328 17.2707L9.18973 18.6409C9.79767 18.2165 10.1045 17.9179 10.5592 17.2707C9.8301 18.5693 9.63648 19.304 9.36091 20.6961C10.3688 19.996 10.9128 19.5432 11.7575 18.6409C10.6925 20.0369 10.1385 20.869 9.36091 22.4088C10.8162 21.7025 11.4687 21.2368 12.7846 20.1823C12.3195 20.6896 12.1866 20.9483 12.0999 21.3812C12.8951 21.1495 13.0059 21.0601 13.8117 20.6961C11.9727 22.3084 10.8436 23.2815 9.36091 24.9779C9.26609 25.2451 9.27118 25.3955 9.36091 25.663H9.70328C9.79371 25.991 9.94942 26.0965 10.388 26.1768C10.473 26.7206 10.4687 27.0202 10.388 27.547C10.2647 27.8234 10.1461 27.9327 9.87446 28.0608C9.34149 28.0933 9.03675 28.0966 8.50499 28.0608C8.40549 28.1951 8.40793 28.2701 8.50499 28.4033C9.04007 28.509 9.33965 28.5012 9.87446 28.4033C11.2924 27.5709 12.0012 27.0067 13.127 25.8343C13.4929 26.4431 13.8175 26.7293 14.3252 27.2044C11.3961 29.7862 9.90141 31.3894 7.47789 34.5691C7.89345 33.5097 8.04303 32.9018 7.99144 31.8287C6.42699 33.0721 5.8056 33.9632 5.08131 35.9392C4.76454 35.662 4.61456 35.6338 4.39658 35.9392C4.13755 36.0528 4.01375 36.1613 3.88302 36.453H4.73894C4.06022 38.0607 3.81047 39.002 3.54066 40.7348C3.32817 42.2636 3.32924 43.088 3.54066 44.5028H4.05421C4.8778 47.3211 5.59368 48.6034 7.64907 49.9834C10.1524 51.7116 11.7301 52.396 14.8388 53.0663H20.1455C20.0996 53.2423 20.1143 53.3508 20.1455 53.5801C20.3538 54.0668 20.4605 54.3096 21.0014 54.6077L18.776 59.9171C17.7574 59.9472 17.2038 59.9996 16.2083 60.174C15.682 60.5352 15.4635 60.7551 15.0956 61.2017L16.1227 60.9447C15.268 61.7041 14.8846 62.1531 14.3252 63C15.8854 62.0415 16.8176 61.5446 18.6048 60.7735H20.6591C20.7155 61.1523 20.7292 61.3384 20.6591 61.6298C20.832 61.7536 20.9069 61.8287 21.0014 61.9724L21.3438 61.2873C21.4065 61.0196 21.3941 60.8699 21.3438 60.6022C20.8681 60.0709 20.4573 59.926 19.632 59.9171L22.3709 53.3232C22.3317 52.678 22.2683 52.32 22.0285 51.6961C22.3125 51.7868 22.4553 51.7936 22.7133 51.6961C22.6509 51.9109 22.6579 52.0218 22.7133 52.2099C24.2005 52.025 24.8639 51.8053 25.7946 51.1823L25.4809 50.877C20.9325 46.4495 18.4034 43.9877 13.2981 40.0497C24.1225 45.3637 31.0157 49.0414 41.5435 52.7238L17.5777 36.2818L31.786 26.0055L21.6862 28.4033L42.3994 19.1547L25.1098 21.2099L34.1826 14.3591L24.4251 18.1271L25.6234 15.3867L18.4337 20.3536L27.1641 1H26.1369L11.5863 17.7845Z" stroke="black"/>
<path d="M15.5235 53.4088H14.8388L10.5592 57.6906C9.08651 57.9814 8.24121 58.209 6.79315 58.7182C5.99284 59.3524 5.60664 59.7686 5.08131 60.6022L9.01854 58.8895C8.68371 59.2834 8.53582 59.5481 8.33381 60.0884C8.79782 59.6768 9.06029 59.4892 9.5321 59.232C10.2628 59.1084 10.6798 59.1106 11.4151 59.232C11.1134 59.0331 11.0413 58.9205 11.0728 58.7182C11.1105 58.474 11.1041 58.3223 11.0728 58.0331L15.5235 53.4088Z" stroke="black"/>
<path d="M33.4979 53.5801C31.4123 52.7145 30.3299 52.0307 28.5335 50.4972L41.03 53.0663C38.0137 53.3658 36.3418 53.2453 33.3267 52.5525L33.4979 53.5801Z" stroke="black"/>
<path d="M8.50574 27.8895C8.33456 27.7182 8.16337 27.5469 7.99219 27.0925C8.16337 27.3757 8.3241 27.3757 8.50574 27.435C8.84811 27.5469 9.19048 27.5469 9.53285 27.3757C9.49725 27.221 9.50118 27.2066 9.53285 27.0925C9.44725 27.1188 9.44725 27.1188 9.36166 27.0925C9.19048 26.8619 9.10488 26.605 9.36166 26.2624C9.61844 26.1174 9.96081 26.2624 10.0464 26.348C10.2176 26.6906 10.126 26.8931 10.0464 27.2638C9.87521 27.7182 9.87521 27.7182 9.53285 27.8895C8.84811 27.9751 8.84811 27.9751 8.50574 27.8895Z" fill="#FF0000" fill-opacity="0.95" stroke="black"/>
<path d="M119.945 32C118.81 32 117.891 32.9202 117.891 34.0552C117.891 35.1903 118.81 36.1105 119.945 36.1105C121.079 36.1105 121.999 35.1903 121.999 34.0552C121.999 32.9202 121.079 32 119.945 32ZM119.945 35.7127C119.029 35.7127 118.288 34.9714 118.288 34.0552C118.288 33.1392 119.029 32.3978 119.945 32.3978C120.86 32.3978 121.601 33.1391 121.601 34.0552C121.601 34.9713 120.861 35.7127 119.945 35.7127ZM120.86 35.0349C120.42 34.2369 120.443 34.2769 120.418 34.2386C120.619 34.1236 120.745 33.8941 120.745 33.6322C120.745 33.1971 120.495 32.9257 119.905 32.9257H119.253C119.198 32.9257 119.154 32.9703 119.154 33.0251V35.0829C119.154 35.1377 119.198 35.1823 119.253 35.1823H119.573C119.627 35.1823 119.672 35.1377 119.672 35.0829V34.3895H119.937L120.33 35.1296C120.339 35.1455 120.351 35.1589 120.367 35.1681C120.382 35.1774 120.4 35.1823 120.418 35.1823H120.773C120.848 35.1823 120.896 35.1011 120.86 35.0349ZM119.953 33.9219H119.672V33.3903H119.899C120.167 33.3903 120.221 33.4909 120.221 33.6531C120.221 33.8264 120.126 33.9219 119.953 33.9219Z" fill="#959698"/>
<path d="M35.1906 39.6681C35.6211 39.6681 35.986 39.6307 36.2855 39.5558C36.5849 39.4809 36.8423 39.3779 37.0575 39.2468L37.4506 40.6512C37.226 40.7823 36.9078 40.8994 36.496 41.0023C36.0843 41.1053 35.5836 41.1568 34.9941 41.1568C34.3296 41.1568 33.7167 41.0538 33.1552 40.8479C32.5937 40.6325 32.1071 40.3282 31.6953 39.935C31.2929 39.5324 30.9795 39.0502 30.7549 38.4884C30.5303 37.9173 30.418 37.2759 30.418 36.5644C30.418 35.8715 30.5256 35.2442 30.7408 34.6824C30.9654 34.1207 31.2742 33.6432 31.6673 33.2499C32.0697 32.8473 32.5563 32.5384 33.1271 32.323C33.698 32.1077 34.3343 32 35.0362 32C35.6351 32 36.1264 32.0562 36.5101 32.1685C36.9031 32.2809 37.2213 32.4026 37.4646 32.5337L37.0294 33.9521C36.7861 33.8211 36.5147 33.7134 36.2153 33.6291C35.9252 33.5355 35.5977 33.4887 35.2327 33.4887C34.849 33.4887 34.4887 33.5449 34.1518 33.6572C33.8149 33.7696 33.5202 33.9521 33.2675 34.2049C33.0148 34.4484 32.8136 34.7667 32.6639 35.1599C32.5235 35.5438 32.4533 36.012 32.4533 36.5644C32.4533 37.098 32.5235 37.5615 32.6639 37.9547C32.8043 38.3386 32.9961 38.657 33.2394 38.9098C33.4921 39.1625 33.7822 39.3545 34.1097 39.4856C34.4466 39.6073 34.8069 39.6681 35.1906 39.6681ZM43.4628 32.1545C44.146 32.1545 44.7683 32.2434 45.3297 32.4213C45.8912 32.5992 46.3732 32.8661 46.7756 33.2218C47.178 33.5776 47.4868 34.0224 47.7021 34.556C47.9267 35.0804 48.039 35.6936 48.039 36.3958C48.039 37.201 47.9078 37.8939 47.6459 38.4744C47.3839 39.0455 47.0282 39.523 46.579 39.9069C46.1299 40.2814 45.6011 40.5576 44.9929 40.7355C44.394 40.9134 43.7576 41.0023 43.0838 41.0023H40.3747V32.1545H43.4628ZM42.2977 39.5137H42.9575C43.3505 39.5137 43.7295 39.4668 44.0945 39.3732C44.4688 39.2702 44.7963 39.1017 45.0771 38.8676C45.3578 38.6242 45.5824 38.3059 45.7509 37.9126C45.9193 37.51 46.0035 37.0044 46.0035 36.3958C46.0035 35.5064 45.7509 34.8276 45.2455 34.3594C44.7402 33.8819 44.0617 33.6432 43.2101 33.6432H42.2977V39.5137ZM55.8823 32.1545H58.9845C59.4992 32.1545 59.9625 32.2153 60.3742 32.3371C60.7953 32.4588 61.151 32.6367 61.441 32.8707C61.7405 33.1048 61.9698 33.3904 62.1288 33.7274C62.288 34.0551 62.3674 34.4343 62.3674 34.865C62.3674 35.3706 62.274 35.806 62.0867 36.1711C61.8996 36.5363 61.6423 36.8406 61.3146 37.084C60.9966 37.3181 60.6222 37.496 60.1917 37.6177C59.7613 37.73 59.3027 37.7862 58.816 37.7862H57.8054V41.0023H55.8823V32.1545ZM57.8054 36.3116H58.5914C58.8349 36.3116 59.0641 36.2929 59.2793 36.2554C59.5039 36.2086 59.6958 36.1337 59.8548 36.0307C60.0232 35.9183 60.1544 35.7779 60.2478 35.6094C60.3415 35.4315 60.3882 35.2114 60.3882 34.9493C60.3882 34.4905 60.2338 34.1534 59.925 33.9381C59.6162 33.7228 59.2231 33.6151 58.7459 33.6151H57.8054V36.3116ZM65.2811 32.1545H68.636C69.1321 32.1545 69.5673 32.2294 69.9415 32.3792C70.3253 32.5196 70.6433 32.7163 70.896 32.9691C71.1487 33.2125 71.3359 33.5027 71.4575 33.8398C71.5886 34.1675 71.654 34.5233 71.654 34.9072C71.654 35.2629 71.5978 35.5813 71.4855 35.8622C71.3827 36.1337 71.2469 36.3724 71.0785 36.5784C70.9194 36.775 70.737 36.9436 70.531 37.084C70.3345 37.2151 70.1428 37.3228 69.9555 37.407L72.1172 41.0023H69.9134L68.2149 37.7441H67.1902V41.0023H65.2811V32.1545ZM67.1902 36.2694H67.9482C68.4535 36.2694 68.8654 36.1665 69.1835 35.9605C69.5111 35.7545 69.6748 35.4127 69.6748 34.9352C69.6748 34.5139 69.5438 34.1909 69.2817 33.9662C69.0291 33.7321 68.6548 33.6151 68.1588 33.6151H67.1902V36.2694ZM78.8451 32C79.4721 32 80.0523 32.103 80.5857 32.309C81.1191 32.515 81.5777 32.8146 81.9613 33.2078C82.3449 33.5917 82.6445 34.0692 82.8597 34.6403C83.0843 35.2114 83.1966 35.8622 83.1966 36.5925C83.1966 37.304 83.0843 37.9407 82.8597 38.5025C82.6351 39.0642 82.3263 39.5417 81.9332 39.935C81.5402 40.3282 81.0724 40.6325 80.5295 40.8479C79.9961 41.0538 79.416 41.1568 78.7889 41.1568C78.1619 41.1568 77.5817 41.0585 77.0483 40.8619C76.5149 40.6559 76.0563 40.361 75.6727 39.9771C75.2891 39.5839 74.9849 39.1064 74.7603 38.5446C74.5451 37.9735 74.4374 37.3228 74.4374 36.5925C74.4374 35.8809 74.5497 35.2442 74.7743 34.6824C74.9989 34.1113 75.3077 33.6291 75.7008 33.2359C76.0938 32.8333 76.557 32.529 77.0904 32.323C77.6333 32.1077 78.218 32 78.8451 32ZM76.4728 36.5925C76.4728 37.1168 76.5336 37.5756 76.6553 37.9688C76.7863 38.3527 76.9595 38.6757 77.1747 38.9378C77.3899 39.1906 77.6379 39.3826 77.9186 39.5137C78.2088 39.6354 78.5176 39.6962 78.8451 39.6962C79.1633 39.6962 79.4627 39.6354 79.7435 39.5137C80.0336 39.3826 80.2815 39.1906 80.4874 38.9378C80.6934 38.6757 80.857 38.3527 80.9787 37.9688C81.1004 37.5756 81.1612 37.1168 81.1612 36.5925C81.1612 36.0494 81.0956 35.5813 80.9647 35.188C80.843 34.7948 80.6745 34.4718 80.4594 34.219C80.2442 33.9568 79.9915 33.7649 79.7014 33.6432C79.4206 33.5215 79.1164 33.4606 78.7889 33.4606C78.4615 33.4606 78.1573 33.5261 77.8765 33.6572C77.5958 33.7883 77.3525 33.9849 77.1466 34.2471C76.9407 34.4999 76.777 34.8229 76.6553 35.2161C76.5336 35.6094 76.4728 36.0681 76.4728 36.5925ZM88.1597 32.1545V39.3873C88.1597 39.7524 88.1503 40.0848 88.1317 40.3844C88.1128 40.6746 88.0755 40.9415 88.0194 41.1849C87.9632 41.4283 87.8836 41.6484 87.7807 41.845C87.6871 42.0416 87.5654 42.2289 87.4158 42.4068C87.1069 42.7719 86.7185 43.0247 86.2507 43.1651C85.7827 43.315 85.2867 43.3899 84.7627 43.3899V41.9152C85.006 41.9152 85.2166 41.8778 85.3944 41.8029C85.5721 41.728 85.7173 41.6343 85.8296 41.522C85.998 41.3722 86.1055 41.1755 86.1524 40.9321C86.2086 40.6887 86.2366 40.4172 86.2366 40.1176V32.1545H88.1597ZM91.6271 32.1545H97.3823V33.6432H93.5501V35.6655H97.0173V37.1402H93.5501V39.5137H97.4244V41.0023H91.6271V32.1545ZM100.423 41.0023V32.1545H102.346V35.8762L105.392 32.1545H107.778L104.479 36.0166L108.059 41.0023H105.687L103.076 37.2244L102.346 37.9969V41.0023H100.423ZM116.598 32.1545V33.6713H114.099V41.0023H112.176V33.6713H109.734V32.1545H116.598Z" fill="#959698"/>
</svg>
