<svg width="24" height="24" viewBox="0 0 24 24" fill="none" xmlns="http://www.w3.org/2000/svg">
<path d="M0.09375 0.545446H5.19375C6.0399 0.545446 6.80144 0.703022 7.47836 1.01817C8.17067 1.33333 8.75529 1.79393 9.23221 2.39999C9.72452 3.00605 10.1014 3.74545 10.363 4.61818C10.6245 5.46667 10.7553 6.44848 10.7553 7.56363C10.7553 8.87272 10.6014 9.99999 10.2937 10.9454C9.98605 11.8909 9.56298 12.6788 9.02452 13.3091C8.50144 13.9151 7.88605 14.3758 7.17836 14.6909C6.47068 14.9818 5.71682 15.1273 4.91683 15.1273H3.25529V23.4545H0.09375V0.545446ZM3.25529 11.3091H4.5476C4.9476 11.3091 5.32451 11.2606 5.67836 11.1636C6.0476 11.0424 6.36298 10.8485 6.62452 10.5818C6.90144 10.2909 7.11683 9.92727 7.27067 9.4909C7.42451 9.0303 7.50144 8.46059 7.50144 7.78181C7.50144 6.59394 7.2476 5.72121 6.7399 5.16363C6.23221 4.60605 5.58606 4.32727 4.80144 4.32727H3.25529V11.3091ZM20.1838 20C20.8915 20 21.4915 19.9031 21.9838 19.7091C22.4762 19.5151 22.8992 19.2485 23.2531 18.9091L23.8992 22.5454C23.53 22.8849 23.0069 23.1878 22.33 23.4545C21.653 23.7213 20.83 23.8545 19.8607 23.8545C18.7684 23.8545 17.7607 23.5878 16.8377 23.0545C15.9146 22.4969 15.1146 21.7091 14.4377 20.6909C13.7762 19.6485 13.2607 18.4 12.8915 16.9454C12.5223 15.4667 12.3377 13.806 12.3377 11.9636C12.3377 10.1697 12.5146 8.54545 12.8684 7.0909C13.2377 5.63636 13.7454 4.39999 14.3915 3.38181C15.053 2.33939 15.8531 1.53939 16.7915 0.98181C17.7299 0.424235 18.7761 0.145447 19.93 0.145447C20.9146 0.145447 21.7222 0.290902 22.3531 0.581812C22.9992 0.872719 23.5222 1.18787 23.9223 1.52726L23.2069 5.19999C22.8069 4.86059 22.3608 4.58181 21.8684 4.36363C21.3916 4.12121 20.8531 3.99999 20.2531 3.99999C19.6222 3.99999 19.03 4.14545 18.4761 4.43636C17.9223 4.72727 17.4377 5.19999 17.0223 5.85454C16.6069 6.48485 16.2761 7.30908 16.03 8.32727C15.7992 9.32121 15.6838 10.5333 15.6838 11.9636C15.6838 13.3454 15.7992 14.5454 16.03 15.5636C16.2607 16.5576 16.5761 17.3818 16.9761 18.0364C17.3915 18.6909 17.8684 19.1878 18.4069 19.5273C18.9607 19.8424 19.553 20 20.1838 20Z" fill="white"/>
</svg>
