<svg width="24" height="24" viewBox="0 0 24 24" fill="none" xmlns="http://www.w3.org/2000/svg">
<path d="M1.32483 16.7959L8.18918 13.4614V16.5901L4.23983 18.319C3.63325 18.6373 3.51456 18.8665 3.80101 19.3894C4.14583 19.801 5.36825 19.7187 6.08913 19.3894L8.18918 18.319V21.036C7.43693 21.2666 6.32944 21.3242 5.86972 21.3242C3.56697 21.338 0.970194 20.2432 0.541229 19.7187C-0.367734 18.6072 -0.148303 17.5369 1.32483 16.7959Z" fill="white"/>
<path d="M8.97279 0V22.3945L12.7968 24V4.98113C12.8619 4.29201 12.9856 4.01479 13.5177 3.91081C13.8957 3.86046 14.4235 4.6067 14.3953 4.98113V13.4614C14.9037 13.8567 15.2496 13.981 15.9625 14.0377C17.8019 13.8542 18.6202 13.2371 18.7521 8.9331C18.7653 5.89887 18.2107 4.5069 15.9625 2.71698C13.3777 1.21824 11.8303 0.674251 8.97279 0Z" fill="white"/>
<path d="M13.5177 18.8542V15.7667C14.7188 15.2885 15.4319 15.0712 16.8715 14.9022C18.6268 14.6963 20.4761 14.7376 23.2657 16.2607C24.112 16.7228 24.7075 18.4837 22.2313 19.7187L13.5177 23.753V20.7067L19.8492 17.825C20.6065 17.4713 20.6642 17.0017 20.1626 16.7959C19.4731 16.4666 18.7835 16.5077 18.1253 16.7959L13.5177 18.8542Z" fill="white"/>
</svg>
