<svg width="24" height="24" viewBox="0 0 24 24" fill="none" xmlns="http://www.w3.org/2000/svg">
<g clip-path="url(#clip0)">
<path d="M11.9274 5.90561C12.3257 5.61953 14.3938 4.28411 17.4352 4.93001C15.9306 3.77197 14.0472 3.08167 12.0017 3.08167C9.97672 3.08167 8.11024 3.75767 6.61328 4.89477C9.54773 4.34536 11.5377 5.62591 11.9274 5.90561Z" fill="white"/>
<path d="M11.9262 10.124C6.4161 14.3782 5.91794 17.7223 5.87891 18.4819C7.4764 19.9911 9.62972 20.9183 12.0007 20.9183C14.2994 20.9183 16.3948 20.0481 17.9762 18.6195C17.9834 18.3051 17.9239 14.7549 11.9262 10.124Z" fill="white"/>
<path d="M14.1641 8.10337C14.1641 8.10337 20.3662 14.1271 17.9939 18.6027C19.7897 16.9712 20.9174 14.6173 20.9174 11.9999C20.9174 9.37245 19.7806 7.01064 17.9728 5.37866C17.9117 5.61246 14.4065 6.77154 14.1641 8.10337Z" fill="white"/>
<path d="M9.68636 8.10334C9.46282 6.87359 6.45844 5.79132 5.95114 5.44885C4.18753 7.07824 3.08203 9.40966 3.08203 12.0001C3.08203 14.4813 4.09617 16.725 5.73118 18.3416C3.72405 13.8965 9.68636 8.10334 9.68636 8.10334Z" fill="white"/>
<path d="M12.0001 24C18.617 24 24 18.6167 24 11.9998C24 5.383 18.6168 0 12.0001 0C5.38299 0 0 5.38329 0 12.0001C0 18.617 5.38299 24 12.0001 24ZM12.0001 1.27596C17.9134 1.27596 22.724 6.08681 22.724 12.0001C22.724 17.9134 17.9132 22.724 12.0001 22.724C6.08711 22.724 1.27571 17.9132 1.27571 12.0001C1.27571 6.08706 6.08681 1.27596 12.0001 1.27596Z" fill="white"/>
</g>
<defs>
<clipPath id="clip0">
<rect width="24" height="24" fill="white"/>
</clipPath>
</defs>
</svg>
